<svg width="84" height="10" viewBox="0 0 84 10" fill="none" xmlns="http://www.w3.org/2000/svg">
<path d="M30.3094 10C31.0735 10 31.6929 9.38774 31.6929 8.63248V0.888889C31.6929 0.397969 31.2903 0 30.7936 0C30.2969 0 29.8943 0.397969 29.8943 0.888889V9.58974C29.8943 9.81632 30.0801 10 30.3094 10Z" fill="#A2A2A2"/>
<path d="M20.7047 9.00141C20.9777 9.45172 21.6458 9.42787 21.8852 8.95926L25.743 1.40968C25.9594 0.986174 25.7725 0.469881 25.3334 0.278236C24.9281 0.101347 24.4535 0.266781 24.2502 0.655849L21.452 6.00891C21.3304 6.2415 20.9975 6.25113 20.8624 6.02596L17.9967 1.25076C17.7354 0.815355 17.0978 0.815354 16.8365 1.25076L13.9709 6.02596C13.8358 6.25113 13.5028 6.2415 13.3813 6.00891L10.5831 0.655849C10.3798 0.266781 9.90518 0.101347 9.49987 0.278236C9.06076 0.469881 8.87384 0.986175 9.09025 1.40968L12.9481 8.95926C13.1875 9.42787 13.8556 9.45172 14.1286 9.00141L17.0695 4.1512C17.2267 3.89204 17.6066 3.89204 17.7638 4.1512L20.7047 9.00141Z" fill="#A2A2A2"/>
<path fill-rule="evenodd" clip-rule="evenodd" d="M51.2525 9.11111C51.2525 9.60203 51.6551 10 52.1518 10C52.6485 10 53.0511 9.60203 53.0511 9.11111V7.55556H56.9392C59.1377 7.55556 60.9199 5.86419 60.9199 3.77778C60.9199 1.69137 59.1377 0 56.9392 0H51.5472C51.3844 0 51.2525 0.130403 51.2525 0.291262V9.11111ZM56.914 5.77778H53.0511V1.77778H56.914C58.1331 1.77778 59.1213 2.67321 59.1213 3.77778C59.1213 4.88235 58.1331 5.77778 56.914 5.77778Z" fill="#A2A2A2"/>
<path fill-rule="evenodd" clip-rule="evenodd" d="M37.0887 0.291262C37.0887 0.130403 37.2206 0 37.3833 0H42.7754C44.9738 0 46.756 1.69137 46.756 3.77778C46.756 5.86419 44.9738 7.55556 42.7754 7.55556H38.8872V9.11111C38.8872 9.60203 38.4846 10 37.9879 10C37.4913 10 37.0887 9.60203 37.0887 9.11111V0.291262ZM38.8872 5.77778H42.7501C43.9692 5.77778 44.9575 4.88235 44.9575 3.77778C44.9575 2.67321 43.9692 1.77778 42.7501 1.77778H38.8872V5.77778Z" fill="#A2A2A2"/>
<path d="M70.5873 9.11111C70.5873 9.60203 70.1847 10 69.688 10C69.1913 10 68.7887 9.60203 68.7887 9.11111V5.77315L64.6521 1.68438C64.3009 1.33724 64.3009 0.774429 64.6521 0.427297C65.0033 0.080164 65.5727 0.080164 65.9239 0.427297L69.6837 4.14365L73.4648 0.406317C73.816 0.0591844 74.3854 0.0591844 74.7366 0.406317C75.0878 0.75345 75.0878 1.31626 74.7366 1.6634L70.5873 5.7647V9.11111Z" fill="#A2A2A2"/>
</svg>
